<?xml version="1.0" encoding="UTF-8"?>
<!DOCTYPE svg PUBLIC "-//W3C//DTD SVG 1.1//EN" "http://www.w3.org/Graphics/SVG/1.1/DTD/svg11.dtd">
<!-- Creator: CorelDRAW 2019 (64-Bit) -->
<svg xmlns="http://www.w3.org/2000/svg" xml:space="preserve" width="210mm" height="210mm" version="1.1" style="shape-rendering:geometricPrecision; text-rendering:geometricPrecision; image-rendering:optimizeQuality; fill-rule:evenodd; clip-rule:evenodd"
viewBox="0 0 21000 21000"
 xmlns:xlink="http://www.w3.org/1999/xlink"
 xmlns:xodm="http://www.corel.com/coreldraw/odm/2003">
 <defs>
  <style type="text/css">
   <![CDATA[
    .str2 {stroke:#4F1D91;stroke-width:20;stroke-miterlimit:22.9256}
    .str1 {stroke:#010101;stroke-width:7.62;stroke-miterlimit:1.42672}
    .str0 {stroke:#010101;stroke-width:7.62;stroke-miterlimit:22.9256}
    .fil1 {fill:#010101}
    .fil4 {fill:#4F1D91}
    .fil3 {fill:#D61E1E}
    .fil5 {fill:#D62020}
    .fil10 {fill:#F0B487}
    .fil8 {fill:#F1B58A}
    .fil11 {fill:#F1DEFC}
    .fil6 {fill:#F47D35}
    .fil0 {fill:#F6EDFC}
    .fil7 {fill:#F7944F}
    .fil9 {fill:#FEFEFE}
    .fil2 {fill:white}
   ]]>
  </style>
 </defs>
 <g id="Layer_x0020_1">
  <metadata id="CorelCorpID_0Corel-Layer"/>
  <path class="fil0" d="M10497.09 312.94c5628.25,0 10190.85,4562.6 10190.85,10190.84 0,5628.25 -4562.6,10190.85 -10190.85,10190.85 -5628.24,0 -10190.84,-4562.6 -10190.84,-10190.85 0,-5628.24 4562.6,-10190.84 10190.84,-10190.84z"/>
  <path class="fil1 str0" d="M13389.86 9753.02c7.13,-359.44 -5.12,-676.49 -21.66,-923.18 -9.96,-148.64 5.66,-367.2 -11.36,-458.68 -17.36,-93.31 -67.79,-58.44 -105.3,-79.45 -65.26,209.63 29.69,757.48 38.7,1286.22 10.25,601.24 20.09,1175.42 -269.38,1918.67 -107.84,276.88 -402.2,604.19 -579.18,838.98 -254.99,338.29 -1426.89,1394.16 -1628.17,1441.47 -257.91,60.61 -1067.85,73.72 -1282.44,-20.75 -312.41,-137.54 -746.64,-490.45 -1160.17,-899.73 -103.32,-102.25 -546.93,-503.1 -770.81,-764.9 -155.43,-181.75 -261.95,-336.87 -353.38,-630.98 -185.41,-596.31 -190.1,-1291.5 -165.33,-1751.56 65.94,-1225.36 296.95,-2426.79 343.06,-2869.96 9.79,-94.14 -110.14,-136.36 -116.64,-114.69 -66.56,221.64 -105.69,530.42 -156.22,893.92 -74.91,538.88 -150.9,1198.18 -183.03,1872.51 -19.05,399.69 -51.04,752.45 -25.83,1061.56 31.75,389.32 134.32,794.12 233.3,1085.13 219.72,645.99 974.39,1502.45 1424.11,2176.09 242.45,363.16 552.29,819.52 644.87,1160.13 174.89,643.49 -10.28,1170.6 28.16,1960.78l-235.26 -189.36c-174.68,-935.15 309.87,-1571.77 -441.78,-2636.01 -358.97,-508.24 -958.32,-1674.54 -954.9,-1816.78 250.83,288.59 745.47,807.42 1224.92,1199.41 233.43,190.87 463.29,351.7 659.63,441.22 171.02,77.98 1040.98,34.22 1324.62,-33.99 151.67,-36.48 628.52,-405.02 1113.57,-880.33 284.07,-278.36 570.97,-593.36 797.02,-899.72 76.09,-103.11 188.4,-256.6 295.18,-416.9 32.46,-48.75 119.24,-248.52 210.8,-468.59 127.38,-306.2 264.08,-1020.46 276.65,-1053.08 3.96,201.27 1.41,1579.28 -65.06,1729.05 -101.9,229.58 99.78,689.67 -64.43,921.31 -204.68,288.76 -961.5,578.19 -1277.68,1135.92 -171.09,301.77 -731.97,446.48 -776.75,681.1 -154.68,810.46 -64.73,1148 -77.4,2277.57l139.3 0c7.66,-590.58 7.57,-1217.58 34.92,-1824.83 38.94,-864.07 1781.78,-1615.07 2252.87,-2372.17 140.95,-226.55 -322.21,-857.27 -321.2,-1125.39 2.83,-764.74 -6.94,-1415.23 1.68,-1850.01z"/>
  <path class="fil1" d="M11859.82 8600.88c45.35,-31.66 89.1,0.2 68.39,50.96 -18.63,45.7 -84.42,29.24 -68.39,-50.96zm-209.15 30.25c84.32,7.73 71.76,124.57 29.21,166.32 80.91,122.1 318.24,42.7 288.34,-132.69 -10.8,-63.31 -70.69,-118.97 -136.3,-128.39 -95.85,-13.77 -155.68,35.1 -181.25,94.76z"/>
  <path class="fil2" d="M11679.88 8797.45c42.55,-41.75 55.11,-158.59 -29.21,-166.32 -37.24,12.39 -55.71,41.72 -52.35,95.43 3.51,56.11 23.34,79.95 81.56,70.89z"/>
  <path class="fil2" d="M11859.82 8600.88c-16.03,80.2 49.76,96.66 68.39,50.96 20.71,-50.76 -23.04,-82.62 -68.39,-50.96z"/>
  <path class="fil1" d="M7927.59 7617.28c73.04,43.98 197.43,114.25 205.67,115.45 5.06,0.74 -126.78,-82.4 -169.93,-116.47 29.42,-0.04 53.96,1.37 55.27,-0.82 -0.04,0.06 -0.17,0.02 -0.36,-0.08l68.13 13.5c544.54,546.21 219.11,198.73 45.14,8.85l219.36 36.51c17.67,17.91 119.69,138.44 147.17,149.77 2.16,-25.64 -91.88,-105.1 -91.55,-144.57 114.61,24.32 160.38,38.2 220.08,53.78 0.23,0.04 140.52,145.78 165.27,168.15 6.07,-10.27 -87.9,-115.51 -112.89,-157.27 -12.71,-21.28 43.45,16.11 34.91,4.08l88.16 79.2 -15.46 -80.01 177.92 237.17c-29.61,-94.45 -86.99,-123.07 -99.8,-230.11 227.01,362.14 85.28,92.42 116.74,57.93 26.17,55.98 52.35,111.95 78.51,167.9l94.25 143.33 -134.48 -296.56 73.11 65.73 -3.37 -52.84c45.83,63.62 94.9,158.56 142.89,217.96 -29.84,-77.8 -77.12,-137.68 -91.23,-218.03 83.91,65.84 120.03,191.84 170.09,283.71 -13.5,-98.14 -79.93,-186.43 -104.71,-279.51 60.45,76.48 98.64,157.82 138.5,254.33l-77.76 -244.4 38.87 73.75c41.69,92.63 88.62,204.84 130.1,314.93 5.98,29.54 12.95,63.65 21.48,103.85l-10.44 -74.26c26.85,72.77 50.87,143.75 68.89,206.53 -3.62,26.21 -7.8,52.98 -12.52,80.32 -1.35,-0.96 -2.57,-1.88 -3.98,-2.86l-106.44 -191.87 17.07 132.43 -7.71 -5.43 -146.44 -302.28c18.3,78.66 52.1,164.13 68.22,247.46 -14.31,-9.79 -27.87,-18.83 -39.82,-26.34l-36.6 -58.24 13.69 44.1c-7.51,-4.58 -15.26,-9.23 -23.19,-13.96l-19.9 -38.06 -159.84 -286.72 115.54 265.41 11.76 28.74c-30.18,-17.3 -62.16,-35.14 -94.99,-53.04 -29.77,-38.24 -58.7,-74.93 -84.52,-105.85 -9.81,-3.87 20.57,38.99 52.46,88.49 -116.78,-62.8 -239.97,-124.32 -327.26,-163.43l-14.03 -6.25c-21.74,-20.7 -38.79,-37.31 -48.91,-47.35 1.04,8.6 7.82,20.38 17.89,33.81 -56.55,-24.38 -120.45,-50.11 -189.32,-74.87 -11.31,-14.11 -22.84,-25.6 -34.82,-32.04l12.64 24.17c-28.31,-9.93 -57.4,-19.65 -87.1,-29.03l-31.19 -42c-3.34,1.14 5.26,16.68 18.57,38.05 -26.45,-8.2 -53.36,-16.12 -80.63,-23.62 -72.79,-66.33 -180.94,-153.52 -198.4,-138.09 25.49,19.33 92.83,76.46 156.77,127.02 -45.59,-11.7 -92.02,-22.14 -138.8,-30.85 -107.15,-19.96 -216.15,-30.87 -321.16,-26.95 -98.4,-42.63 -198.63,-83.28 -243.64,-87.15l207.13 89.14c-37.04,2.66 -73.48,7.28 -109.09,14.13 -82.42,-30.72 -159.17,-63.19 -194.34,-89.16 -17.83,-13.18 -22.87,-50.58 -7.92,-55.27 38.26,-12 85.45,-39.47 148.52,-49.28l142.55 55.56c-14.34,-14.21 -69.2,-46.74 -105.76,-62.77 41.88,-16.15 97.65,-28.57 134.22,-44.06 115.57,43.28 258.57,92.93 281.34,111.39 -4.4,-14.77 -135.09,-74.65 -252.98,-121.02 20.5,-5.37 124.06,-33.19 134.4,-33.86zm-497.16 220.88l179.56 75.73c-24.8,6.01 -49.12,13.15 -72.87,21.58 -38.55,-12.26 -73.8,-26.42 -96.71,-42.69 -20.96,-14.87 -11.11,-37.68 -9.98,-54.62zm9.49 78.71l82.18 24.16c-12.13,4.64 -24.12,9.6 -35.92,14.93 -18.02,-3.7 -36.46,-7.74 -55.18,-12.01 2.91,-8.68 5.89,-17.69 8.92,-27.08zm1434.23 178.68l78.49 96.24c-14.38,-54.19 -45.55,-75.17 -78.49,-96.24zm-21.07 75.07c-5.05,-63.99 -204.32,-260.16 -239.43,-278.31l239.43 278.31zm-384.44 -255.87c-25.7,-49.28 -124.51,-165.31 -164.08,-184.97l164.08 184.97zm156.08 107.77c-19.58,-61.5 -34.15,-53.96 -68.72,-93.47l-65.26 -42.51 133.98 135.98zm-0.74 -199.7c107.7,106.65 212.95,210.14 219.07,208.59 11.13,-2.82 -160.37,-192.2 -219.07,-208.59zm-501.4 64.48c-33.9,-44.08 -323.11,-170.1 -329.7,-163.71 -6.51,6.28 268.75,144.45 329.7,163.71z"/>
  <path class="fil1" d="M12473.35 7617.28c-76.37,43.98 -206.44,114.25 -215.06,115.45 -5.29,0.74 132.57,-82.4 177.69,-116.47 -30.76,-0.04 -56.42,1.37 -57.79,-0.82 0.04,0.06 0.17,0.02 0.37,-0.08l-71.24 13.5c-569.39,546.21 -229.11,198.73 -47.2,8.85l-229.37 36.51c-18.47,17.91 -125.15,138.44 -153.89,149.77 -2.26,-25.64 96.07,-105.1 95.73,-144.57 -119.85,24.32 -167.7,38.2 -230.12,53.78 -0.24,0.04 -146.94,145.78 -172.82,168.15 -6.35,-10.27 91.91,-115.51 118.04,-157.27 13.29,-21.28 -45.43,16.11 -36.5,4.08l-92.19 79.2 16.17 -80.01 -186.05 237.17c30.97,-94.45 90.97,-123.07 104.37,-230.11 -237.38,362.14 -89.18,92.42 -122.08,57.93 -27.36,55.98 -54.74,111.95 -82.09,167.9l-98.56 143.33 140.62 -296.56 -76.45 65.73 3.53 -52.84c-47.92,63.62 -99.24,158.56 -149.41,217.96 31.2,-77.8 80.64,-137.68 95.39,-218.03 -87.73,65.84 -125.5,191.84 -177.86,283.71 14.12,-98.14 83.59,-186.43 109.5,-279.51 -63.22,76.48 -103.15,157.82 -144.83,254.33l81.31 -244.4 -40.64 73.75c-43.59,92.63 -92.66,204.84 -136.04,314.93 -6.25,29.54 -13.55,63.65 -22.46,103.85l10.92 -74.26c-28.08,72.77 -53.2,143.75 -72.04,206.53 3.79,26.21 8.15,52.98 13.09,80.32 1.41,-0.96 2.69,-1.88 4.17,-2.86l111.29 -191.87 -17.85 132.43 8.06 -5.43 153.13 -302.28c-19.14,78.66 -54.48,164.13 -71.33,247.46 14.96,-9.79 29.14,-18.83 41.64,-26.34l38.26 -58.24 -14.31 44.1c7.86,-4.58 15.96,-9.23 24.25,-13.96l20.81 -38.06 167.14 -286.72 -120.82 265.41 -12.3 28.74c31.56,-17.3 65.01,-35.14 99.33,-53.04 31.13,-38.24 61.38,-74.93 88.38,-105.85 10.26,-3.87 -21.51,38.99 -54.86,88.49 122.12,-62.8 250.93,-124.32 342.21,-163.43l14.67 -6.25c22.72,-20.7 40.56,-37.31 51.14,-47.35 -1.09,8.6 -8.18,20.38 -18.71,33.81 59.13,-24.38 125.95,-50.11 197.97,-74.87 11.82,-14.11 23.88,-25.6 36.41,-32.04l-13.22 24.17c29.6,-9.93 60.02,-19.65 91.07,-29.03l32.62 -42c3.49,1.14 -5.5,16.68 -19.42,38.05 27.65,-8.2 55.8,-16.12 84.31,-23.62 76.12,-66.33 189.2,-153.52 207.46,-138.09 -26.65,19.33 -97.07,76.46 -163.92,127.02 47.66,-11.7 96.21,-22.14 145.13,-30.85 112.04,-19.96 226.02,-30.87 335.82,-26.95 102.89,-42.63 207.7,-83.28 254.77,-87.15l-216.59 89.14c38.73,2.66 76.84,7.28 114.06,14.13 86.2,-30.72 166.44,-63.19 203.22,-89.16 18.65,-13.18 23.91,-50.58 8.29,-55.27 -40.01,-12 -89.36,-39.47 -155.31,-49.28l-149.06 55.56c15,-14.21 72.37,-46.74 110.6,-62.78 -43.8,-16.14 -102.11,-28.56 -140.36,-44.05 -120.84,43.28 -270.37,92.93 -294.18,111.39 4.6,-14.77 141.26,-74.65 264.53,-121.02 -21.43,-5.37 -129.73,-33.19 -140.54,-33.86zm519.87 220.88l-187.76 75.73c25.92,6.01 51.36,13.15 76.19,21.58 40.31,-12.26 77.17,-26.42 101.13,-42.69 21.91,-14.87 11.61,-37.68 10.44,-54.62zm-9.93 78.71l-85.94 24.16c12.69,4.64 25.22,9.6 37.57,14.93 18.84,-3.7 38.12,-7.74 57.7,-12.01 -3.05,-8.68 -6.16,-17.69 -9.33,-27.08zm-1499.71 178.68l-82.07 96.24c15.03,-54.19 47.63,-75.17 82.07,-96.24zm22.03 75.07c5.28,-63.99 213.65,-260.16 250.37,-278.31l-250.37 278.31zm401.99 -255.87c26.87,-49.28 130.2,-165.31 171.57,-184.97l-171.57 184.97zm-163.2 107.77c20.47,-61.5 35.7,-53.96 71.86,-93.47l68.23 -42.51 -140.09 135.98zm0.77 -199.7c-112.61,106.65 -222.67,210.14 -229.07,208.59 -11.64,-2.82 167.69,-192.2 229.07,-208.59zm524.29 64.48c35.45,-44.08 337.86,-170.1 344.76,-163.71 6.8,6.28 -281.02,144.45 -344.76,163.71z"/>
  <path class="fil3" d="M16740.26 16895.07c-356.42,163.27 -899.51,427.19 -1375.61,-20.53 -286.44,-269.39 -406.93,-769.17 -466.47,-1264.29 -59.27,-492.85 -37.48,-950.33 -168.5,-1416.39 -125.65,-446.93 -283.19,-708.46 -527.81,-1011.17 66.65,-109.13 125.12,-216.27 172.53,-321.04 316.43,-699.48 567.44,-1347.58 765.51,-1944.67 61.27,143.84 102.96,249.13 166.55,361.16 282.18,497.07 537.06,938.41 754.93,1493.89 466.36,1188.99 -58.48,1706.49 -243.19,2939.21 -125.82,839.71 -31.72,1226.4 922.06,1183.83z"/>
  <path class="fil1 str1" d="M13975.47 18516.17c478.74,-912.41 -686.17,-1328.53 -1389.97,-1299.19 -672.29,28.02 -603.93,725.8 -909.06,553.11 -433.57,-245.4 -1106.91,-246.53 -261.83,-2347.77 474,-1178.56 2223.27,-2153.88 2403.71,-2489.94 759.48,-1414.53 852.56,-2233.04 851.28,-3123.68 -2.45,-1713.39 -321.32,-2892.23 -297.15,-2857.48 321.87,462.56 1022.44,2076.97 641.11,5198.25 -78.41,641.87 -583.96,1501.52 -677.06,2256.33 -138.93,1126.51 1432.04,3721.39 -361.03,4110.37z"/>
  <path class="fil4 str2" d="M13818.32 12932.38c759.49,-1414.54 852.56,-2233.04 851.28,-3123.68 -0.32,-225.52 -6.17,-441.67 -15.95,-647.12 -213.76,-53.93 -447.99,-129.58 -741.13,-298.43 -301.51,-173.67 -529.22,-362.75 -703.39,-562.47 67.32,474.65 130.3,1022.98 159.41,1581.86 27.46,527.2 10.58,816.8 -43.09,1110.83 -48.34,264.94 -122.72,533.59 -289.9,982.98 -234.38,629.97 -928.55,1465.51 -1408.47,2122.48 -258.68,354.14 -589.48,799.34 -688.29,1131.56 -319.55,1074.43 -273.1,1904.51 289.24,2455.64 298.14,292.2 741.32,506.02 1351.83,636.27 830.26,177.15 690.68,821.3 690.68,821.3 311.69,-14.1 332.09,-909 -426.83,-1129.46 -3343.94,-971.45 -46.13,-3180.58 974.61,-5081.76z"/>
  <path class="fil5" d="M16822.66 11717.75c-1108.19,-15.62 -773.6,-1496.41 -1539.22,-1767.3 -398.13,-140.88 -743.3,-123.13 -1303.56,-445.86 -1639.65,-944.51 -1078.74,-2749.25 -1581.79,-3844.46 -665.99,-1449.94 -3033.41,-2195.75 -2978.73,-2207.55 2440.8,-526.41 1687.01,296.88 2643.94,-275.86 533.1,-319.07 613.41,-400.44 822.34,-403.94 1563.87,297.35 1907.99,1549.87 1822.25,2501.26 -85.57,949.35 -387.17,2271.33 910.58,3367.38 183.28,154.8 356.56,262.46 512.8,400.77 1031.5,913.12 -199.79,2088.57 691.39,2675.56z"/>
  <path class="fil4" d="M17180.29 7821.76c-253.63,152.39 -509.31,277.22 -930.75,281.49 -347.93,3.53 -901.08,-135.17 -1168.93,-330.85 -414.1,-302.5 -329.43,-1455.4 -92.64,-2071.76 116.39,197.94 226.06,444.28 326.96,638.37 90.84,174.71 279.56,432.07 428.45,612.34 287.93,348.64 746.5,875.36 1436.91,870.41z"/>
  <path class="fil1" d="M3878.59 7410.66c202.07,152.39 405.77,277.22 741.54,281.49 277.2,3.53 717.89,-135.17 931.29,-330.85 329.93,-302.5 262.47,-1455.4 73.81,-2071.76 -92.73,197.95 -180.1,444.28 -260.49,638.37 -72.37,174.72 -222.73,432.08 -341.35,612.34 -229.4,348.64 -594.75,875.36 -1144.8,870.41z"/>
  <path class="fil1" d="M8996.6 14099.65c629.46,891.23 809.71,2585.26 30.18,3421.22 -269.61,289.17 -670.39,500.76 -1222.48,629.66 -750.83,175.31 -624.6,812.74 -624.6,812.74 -281.88,-13.93 -300.32,-899.53 385.99,-1117.69 2572.34,-817.83 -1937.19,-1408.86 -1023.48,496.8 -1621.52,-384.93 -200.85,-2952.83 -326.49,-4067.63 -26.9,-238.54 -91.84,-487.69 -170.09,-737.02 -71.75,150.61 -131.83,318.51 -185.46,527.29 -118.51,461.23 -98.8,913.94 -152.38,1401.67 -53.86,489.96 -162.81,984.54 -421.86,1251.14 -430.55,443.05 -921.67,181.89 -1244,20.31 862.55,42.12 947.63,-340.53 833.85,-1171.52 -167.04,-1219.89 -641.66,-1732.03 -219.91,-2908.64 197.01,-549.7 427.51,-986.46 682.69,-1478.35 44.98,-86.71 83.73,-167.25 116.54,-269.32 43.28,-134.64 51.09,-201.52 47.98,-405.25 -3.76,-243.31 1.86,-473.82 10.93,-691.66 -51.02,15.14 -102.33,32.09 -154.64,52.34 -692.36,268.08 -389.78,1733.47 -1391.95,1748.93 805.92,-580.89 -307.56,-1744.12 625.24,-2647.74 141.29,-136.87 297.99,-243.41 463.74,-396.6 1173.59,-1084.65 900.84,-2392.89 823.46,-3332.36 -77.53,-941.5 233.66,-2180.99 1647.91,-2475.25 20.9,0.38 888.4,499.19 1544.45,687.53 2926.49,840.14 4295.69,3755.36 5506.37,5765.28l-2136.18 -907.96c-1237.48,-455.98 -3193.46,-2521.96 -3953.76,-3617.77 -111.3,101.49 935.03,1417.61 1056.7,1541.56 339.06,345.45 1081.24,984.92 1364.28,1192.53 291.55,213.85 492.3,339.77 476.31,347.19 -114.66,53.23 -1295.31,-214.12 -2267.42,-925.76 -607.35,-444.62 -953.49,-806.78 -1176.83,-1125.09 -96.37,383.86 1337.7,1437.28 1698.6,1655.09 56.94,34.37 -322.76,37.32 -703.14,-4.67 -535.74,-59.15 -730.09,-170.42 -1176.21,-462.61 -143.55,1148.35 -493.83,1853.44 -560.95,3101.12 -23.91,444.06 -19.4,1115.08 159.56,1690.66 60.27,193.79 481.62,763.99 1637.05,2399.83z"/>
  <path class="fil1" d="M10753.1 1992.66c62.39,133.52 267.53,221.96 370.64,303.27 350.45,276.38 687.76,773.45 757.21,1248.21 567.91,-26.66 768.47,114.41 1049.45,447.7 548.87,651.07 970.24,2503.35 1180.48,3349.34 219.71,884.01 460.21,1519.06 930.74,2098.84 689.52,849.65 1677.64,599.14 1974.55,57.62 -87.44,120.67 -628.17,373.76 -1093.16,-236.86 -748.22,-982.55 -1227.37,-3419.8 -1819.62,-4844.88 -276.98,-666.47 -923.3,-1446.76 -1502.63,-1865.73 -632.73,-457.57 -1110.9,-533.63 -1847.66,-557.51z"/>
  <path class="fil1" d="M11612.73 3276.33c-2.08,-190.3 -104.62,-326.82 -192.64,-469.42 -122.69,-198.82 -155.44,-249.06 -357.42,-376.97 -313.08,-198.27 -984.02,-350.25 -1427.7,-360.06 -452.78,-10.01 -871.29,58.74 -1306.89,122.01 -405.97,58.96 -909.02,194 -1086.41,-170.92 -183.75,740.3 1860.7,1266.94 2906.03,1174.04 577.92,-51.36 862.18,-128.69 1465.03,81.32z"/>
  <path class="fil1" d="M9744.13 9501.44c-6.83,-216.7 -98.35,-576.59 -189.56,-771.15 -46.11,-98.38 -86.98,-174.16 -106.31,-207.27 -12.24,-20.96 46.59,-53.15 47.86,-47.59 14.59,63.44 90.08,159.01 137.9,272.91 49.03,116.8 93.76,247.96 124.1,361.55 65.88,246.68 60.52,701.61 -1.02,937.76 -44.64,171.28 -400.79,378.67 -253.81,767.03 3.83,10.13 31.49,-58.66 72.89,-80.5 192.11,-101.34 474.93,190.1 413.47,258.05 -1.06,1.17 -37.5,23.36 -50.55,1.69 -70.16,-116.53 -162.76,-180.5 -246.73,-197.11 -97.39,-19.28 -140.21,86.86 -139.56,91.91 7.11,55.65 63.96,73.75 90.37,96.25 12.21,10.41 8.61,28.24 0.57,42.39l-50.58 -8.43c-69.54,-42.8 -117.05,-91.65 -148.79,-144.23 -80.25,-133.02 -69.9,-317.52 -25.1,-458.62 33.64,-105.95 82.54,-175.18 150.16,-247.64 70.18,-75.18 187.23,-269.06 174.69,-667z"/>
  <path class="fil1" d="M10571.86 9489.93c6.82,-216.7 98.18,-576.59 189.22,-771.15 46.03,-98.38 86.83,-174.16 106.12,-207.27 12.22,-20.96 -46.5,-53.15 -47.77,-47.59 -14.56,63.44 -89.91,159.01 -137.65,272.91 -48.95,116.8 -93.6,247.96 -123.88,361.55 -65.76,246.68 -60.41,701.61 1.02,937.76 44.55,171.29 400.07,378.67 253.35,767.03 -3.82,10.13 -31.43,-58.66 -72.76,-80.5 -191.76,-101.34 -474.07,190.1 -412.73,258.06 1.06,1.16 37.44,23.35 50.46,1.68 70.03,-116.53 162.47,-180.5 246.29,-197.11 97.22,-19.28 139.96,86.86 139.31,91.91 -7.1,55.65 -63.84,73.75 -90.2,96.25 -12.19,10.41 -8.6,28.25 -0.58,42.39l50.49 -8.43c69.42,-42.8 116.85,-91.65 148.53,-144.23 80.11,-133.02 69.77,-317.52 25.05,-458.62 -33.58,-105.95 -82.39,-175.18 -149.89,-247.64 -70.05,-75.18 -186.9,-269.06 -174.38,-667z"/>
  <path class="fil1" d="M10555 10383.83c99.29,254.09 -156.4,425.22 -402.04,425.22 -112.6,0 -231.18,-41.65 -313.06,-133.25 -84.98,-95.08 -111.86,-227.55 -31.63,-335.91 59.47,-80.32 160.77,-66.59 107.46,-21.23 -44.7,38.05 -135.53,68.87 -72.78,243.88 43.79,122.1 175.51,179.17 297.62,179.17 86.99,0 214.79,-34.9 296.93,-99.86 101.64,-80.39 81.92,-181.92 60.59,-232.43 -33.31,-78.86 -88.04,-83.07 -121.87,-110.28 -14.52,-11.68 -11.17,-45.6 10.27,-45.96 35.04,-0.6 128.85,29.17 168.51,130.65z"/>
  <path class="fil6" d="M11457.57 11792.61c-88.98,46.24 -328.34,129.6 -419.37,180.48 -119.6,66.86 -216.39,64.84 -348.23,91.24 -268.41,53.77 -416.05,129.84 -690.94,85.75 -98.4,-15.78 -189.37,-42.4 -287.6,-56.86 -107.68,-15.84 -288.22,-14.49 -414.15,-52.57 -176.7,-53.42 -332.63,-119.3 -399.49,-169.17 23.46,59.7 236.55,172.99 272.73,227.6 5.08,7.66 405.71,258.44 439.57,273.3l173.36 59.65 183.15 37.32c292.37,55.19 546.68,-37.62 795.32,-195.54 330.54,-209.93 366.18,-232.06 695.65,-481.2z"/>
  <path class="fil7" d="M11397.19 11828.41c-12,2.57 -149.52,39.8 -287.99,22.97 -139.05,-16.91 -279.13,-87.95 -293.96,-93.56 -108.57,-41.03 -280.17,-106.62 -391.18,-83.4 -143.34,30 -212.3,112.11 -296.41,130.64l-186.72 -107.89c-44.88,-16.86 -128.92,-48.16 -181.46,-44.56 -232.61,15.93 -366.67,129.81 -578.29,156.98 -82.1,10.55 -176.91,45.08 -287.85,24.88 81.95,51.73 145.13,86.62 250.04,136.52 216.23,77.44 372.53,79.44 582.41,89.47 106.36,-1.42 347.99,47.55 454.91,45.95 106.72,-1.59 227.48,-21.95 332.48,-16.64 102.3,5.17 56.71,-3.19 156.56,-10.23 115.86,-8.18 236.43,-21.39 342.54,-71.95 76.63,-36.52 321.11,-148.91 384.92,-179.18z"/>
  <path class="fil8" d="M9417.78 11789.01l-42.49 18.79c9.11,39.5 46.5,47.71 92.93,59.66 103.41,26.62 275.55,32.42 382.2,31.54 44.37,-0.37 92.88,-1.9 137.28,-8.28 55.77,-8.02 79.8,-59.47 61.53,-90.42 -21.83,-36.96 -135.15,-102.76 -201.58,-102.32 15.28,12.17 76.05,22.41 100.7,35.9l8.13 5.68c-40.25,-2.08 -78.83,-12.1 -125.6,-13.53 -44.32,-1.35 -88.51,1.91 -133.71,7.26 -40.48,4.79 -268.75,58.77 -279.39,55.72z"/>
  <path class="fil8" d="M10688.53 11753.05c4.35,3.47 2.97,2.47 8.22,5.79 0.57,0.36 6.73,3.9 8.06,4.61 24.3,12.92 74.11,35.41 90.77,50.35 -36.01,-7.2 -79.98,-21.81 -117.31,-32.08 -144.84,-39.85 -116.46,-42.18 -261.61,-21.53l-110.93 12.02c-21.74,0 -21.81,-4.39 -26.29,-11.38 -32.1,21.22 -49.57,35.63 -58.27,68.9 -27.66,105.68 95.77,81.82 222.75,109.14 74.03,15.93 144.58,3.55 221.22,-18.53 43.42,-12.51 164.13,-54.33 185.81,-82.31 -5.85,-28.16 -49.83,-43.67 -74.24,-53.93 -25.73,-10.82 -58.78,-24.11 -88.18,-31.05z"/>
  <path class="fil9" d="M10274.64 11762.18c4.48,6.99 4.55,11.38 26.29,11.38l110.93 -12.02c145.15,-20.64 116.77,-18.32 261.6,21.53 37.34,10.27 81.31,24.88 117.32,32.08 -16.66,-14.94 -66.47,-37.43 -90.77,-50.35 -1.33,-0.71 -7.49,-4.25 -8.07,-4.61 -5.24,-3.32 -3.87,-2.32 -8.21,-5.79 -22.31,-4.51 -57.92,-22.77 -84.55,-31.4 -29.21,-9.47 -61.41,-18.52 -98.45,-18.91 -65.83,-0.68 -171.75,27.49 -226.09,58.09z"/>
  <path class="fil9" d="M9411.68 11789.01c10.64,3.05 238.91,-50.93 279.39,-55.72 45.2,-5.35 89.39,-8.61 133.71,-7.26 46.77,1.43 85.35,11.45 125.6,13.53l-8.13 -5.68c-24.65,-13.49 -85.42,-23.73 -100.7,-35.9 -28.52,0.81 -63.52,-11.49 -99.29,-10.64 -35.13,0.83 -83.09,14.45 -117.38,23.94 -37.18,10.28 -199.29,54.94 -213.2,77.73z"/>
  <path class="fil10" d="M10210.22 12267.46c79.99,-27.6 193.64,29.9 107.62,58.46 -80.28,26.65 -196.43,-27.82 -107.62,-58.46zm383.36 -129.73c81.17,-22.29 179.77,-10.57 138.24,75.89 -26.31,54.79 -87.62,79.09 -180.06,76.06 -49.61,-1.63 -210.51,-17.63 -145.09,-66.38 38.16,-28.44 132.68,-70.69 186.91,-85.57zm-1048.48 -78.43c-83.83,19.41 -73.47,70.12 -25.92,120.6 86.11,91.42 320.61,151.09 457.2,177.47 143.2,27.65 249.08,19.55 402.16,-2.23 125.33,-17.82 285.21,-46.4 371.29,-114.02 31.92,-25.07 96.32,-81.73 31.95,-122.25 -32.24,-20.3 -110.18,-42.59 -164.58,-42.1 -145.25,1.29 -241.96,93.91 -376.77,108.12 -237.9,25.08 -462.52,-179.49 -695.33,-125.59z"/>
  <path class="fil9" d="M10593.58 12137.73c-54.23,14.88 -148.75,57.13 -186.91,85.57 -65.42,48.75 95.48,64.75 145.09,66.38 92.44,3.03 153.75,-21.27 180.06,-76.06 41.53,-86.46 -57.07,-98.18 -138.24,-75.89z"/>
  <path class="fil9" d="M10210.22 12267.46c-88.81,30.64 27.34,85.11 107.62,58.46 86.02,-28.56 -27.63,-86.06 -107.62,-58.46z"/>
  <path class="fil1" d="M8769.64 11835.16c1.11,0.83 169.57,69.34 170.33,71.18 19.64,-0.28 199.31,110.24 300.47,142.32 177.02,56.13 328.34,51.3 499.76,76.62 96.61,14.27 186.08,40.56 282.86,56.14 270.36,43.53 415.57,-31.58 679.56,-84.66 129.66,-26.08 224.86,-24.08 342.49,-90.09 141.65,-79.5 209.18,-91.62 249.64,-108.68 67.71,-28.56 161.44,-75.62 298.37,-100.92 37.3,-6.88 78.63,218.89 141.89,204.81 113.73,-25.31 -81.35,-292.69 -100,-313.14 -5.2,-5.69 -45.79,-6.43 -56.24,12.74 -8.04,14.78 -0.99,53.47 -24.02,58.72 -175.66,40.18 -265.81,91.45 -308.8,110.2 -59.09,25.77 -32.61,15.85 -233.68,108.51 -106.11,48.89 -226.68,61.67 -342.54,69.58 -113.07,7.71 -402.03,25.14 -504.37,26.62 -106.92,1.54 -333.22,-46.44 -439.58,-45.07 -366.64,4.73 -625.94,-58.81 -930.65,-287.6 -7.27,-5.43 3.68,-29.88 5.35,-51.31 1.79,-22.97 -7.06,-42.51 -60.45,-31.45 -3.59,11.86 -149.79,256.68 -134.19,273.42 9.02,7.87 32.47,37.43 47.42,21.61 68.98,-73.1 95.93,-152.56 116.38,-119.55z"/>
  <path class="fil1" d="M8971.58 8627.27l0 0zm111.48 75.77c41.03,42.21 19.4,79.46 27.24,165.09l21.62 -74.5 -10.01 -57.68c26.92,15.24 77.17,89.46 87.44,116.97 -37.96,23.6 -113.52,13.27 -190.18,24.39 -15.87,2.3 -1.5,-85.63 -7.72,-120.1 -1.61,-8.91 -4.63,-14.24 -9.84,-13.53 -9.5,1.28 -12.16,17.57 -23.79,36.66 -9.51,15.61 -27.69,33.12 -38.5,45.84 -17.77,20.9 -37.3,18.18 -58.24,29.3 -2.87,1.52 -201.66,59.3 -239.51,74.56 -31.38,12.64 36.77,-2.63 113.12,-19.69 99.25,-22.18 67.17,-17.76 78.49,-16.97 21.9,1.5 -9.96,24.81 -132.55,64.09 -94.14,30.18 -152.86,48.61 -280.01,47.28 -39.09,-0.41 -84.68,-10.21 -139.75,-12.55 -92.42,-11.46 -356.44,-98.78 -412.04,-176.44 29.99,-15.44 33.72,-52.48 72.65,-66.54 128.17,111.73 184.1,162.76 350.68,202.44 133.42,31.79 271.01,55.38 371.3,-39.81 13.68,-13.01 24.09,-18.75 34.92,-31.86 79.97,-96.77 101.28,-156.68 98.31,-305.1 42.6,-14.07 158.49,126.09 200.38,148.75 -23.81,-21.94 -83.65,-122.39 -107.56,-150.6l16.17 -19.68c15.69,-19.34 7.84,-3.12 18.01,-29.46l-77.78 30.99c11.6,-36.88 22.01,-22.36 22.38,-74.37 -13.61,18.38 -2.04,-8.5 -12.11,9.53 -13.91,24.91 -18.34,20.05 -34.58,41.2l-54.02 -24.32c5.63,-16.03 0.78,-4.63 8.09,-17.09 15.73,-26.79 19.67,-20.6 27.94,-60.51 -21.08,13.9 -3.64,-0.07 -20.02,17.22 -6.02,6.36 -9.93,13.21 -16.29,20.97 -15.82,19.32 -16.3,22.05 -36.17,20.74l0.9 -20.4c5.87,-35.81 14.65,-41.19 3.39,-88.26 34.79,8.64 93.76,46.88 112.2,60.54 25.77,19.11 59.56,40.58 85.17,62.28 53.9,45.66 90.18,101.04 129.48,129.78 -35.17,-71.28 -71.85,-141.7 -163.65,-209.79 -138.1,-102.43 -296.78,-119.48 -399.17,-113.48l-14.83 -82.09 -0.16 82.96 -60.73 4.6 -20.33 -54.22 2.18 57.11 -77.71 11.92 -26.09 -49.42c4.07,25.56 10.83,34.13 6.82,53.39l-127.94 36.36c-13.92,-15.08 -9.39,-7.64 -15,-33.98 -2.89,7.2 -3.97,4.7 -4.37,19.49 -0.22,8.13 3.63,15.03 -2.23,20.97 -7.56,7.67 -152.71,65.75 -180.48,78.82 -16.94,-25.42 -36.24,-57.96 -48.63,-90.62 4.57,49.4 18.22,63.55 32.31,104.61 -13.4,11.84 -34.67,24.34 -52.45,34.92 -6.06,3.61 -12.22,6.86 -18.2,10.64 -1.84,1.17 -7,4.68 -8.82,5.87 -12.06,7.97 -14.87,10.56 -27.36,16.97l-22.71 -21.63c-1.19,-1.09 -3.37,-2.97 -4.35,-3.85 -1.01,-0.91 -2.91,-2.68 -4.43,-3.93 6.62,25.67 5.81,18.99 15.22,38.21 -33.8,16.52 -28.74,33.89 -64.88,48.09 -49.88,-107.67 -29.45,-27.86 -17.62,17.06 -28.84,-13.59 -28.2,-23.39 -42.69,-52.46 -8.08,57.72 1.65,38.99 9.34,76.82 -24.32,3.42 -15.69,9.94 -24.37,-16.74 1.56,17.45 0.97,30.32 -5.11,38.36 -6.93,9.18 -19.45,17.4 -41.76,29.92 -30.56,-24.87 -41.75,-61.66 -66.93,-92.18 6.17,33.15 32.77,83.57 53.67,99.29l-30.65 32.96c-14.2,-11.09 -23.97,-21.81 -38,-32.03l24.44 40.95 -19.09 27.35c12.97,-2.75 21.94,-7.35 28.91,-9.72 4.77,-1.62 19.98,8.23 39,20.89 80.47,53.58 127.26,49.95 205.55,89.34 51.35,25.83 95.73,50.87 148.44,73.19 110.46,46.81 197.05,82.37 330.89,94.74 64.86,5.99 132.35,4.09 197.46,-2.3 66.36,-6.51 135.06,-24.59 194.37,-30.47 15.03,45.25 23.48,108.26 34.58,139.18 12.22,-96.67 -38.03,-141.05 -12.79,-153.75 46.45,-23.39 376.4,-109.54 442.98,-106.54l46.68 -4.31c0.83,-2.38 3.41,-1.73 5.04,-2.75 10.71,-66.36 -328.49,-347.76 -153.56,-167.88zm-742.44 461.11l-1.76 22.68 8.97 -22.5 5.1 -67.61 16.71 20.98c36.77,56.38 30.45,98.24 15.91,159.76 33.06,-87.97 37.34,-121.29 -21.54,-186.45l-11.08 5.71c-9.7,13.29 -1.95,-7.01 -9.27,14.59 -1.9,5.62 -2.33,12.95 -2.83,18.98 -0.8,9.78 -0.2,23.74 -0.21,33.86zm-341.22 -190.45c-8.46,0.22 -103.24,23.21 -110.32,27.45 -26.44,15.82 -48.09,53.57 -47.57,93.47 13.18,-40.2 37.25,-77.06 79.4,-87 -1.05,1.21 -8.14,9.28 -8.19,9.34 -28.84,39.71 -4.88,20.06 25.32,-1.3 24.83,-17.55 53.88,-33.6 61.36,-41.96zm-234.52 121.65c22.76,-44.99 22.02,-53.89 55.24,-90.53 43.32,-47.81 76.02,-42.55 111.3,-74.09l-118.62 30.23c-24.85,13.86 -12.55,5.75 -22.35,25.09l40.09 -16.54c-4.89,6.83 -22.35,22.63 -31.68,37.66 -12.18,19.65 -30.27,65.1 -33.98,88.18zm452.87 116.74c12.96,-36.84 33.74,-74.71 13.02,-126.09l-13.02 126.09zm325.89 -119.32c19.68,43.04 16.74,70.45 22.14,117.68 14.91,-37.7 16.86,-97.71 -22.14,-117.68zm-526.73 56.59c5.14,-45.88 35.99,-80.22 44.34,-118.24 -31.48,16.83 -52.82,65.65 -44.34,118.24zm259.81 47.25c18.1,-39.36 22.74,-99.8 -18.2,-128.58 15.62,68.59 18.77,50.1 18.2,128.58zm-120.53 -3.1c3.45,-80.92 14.94,-89.24 37.87,-148.53 -43.14,28.81 -52.82,81.04 -37.87,148.53zm-192.51 -25.69c-0.81,-58.9 23.74,-106.55 40.18,-149.89 -39.49,22.37 -55.03,87.53 -40.18,149.89zm-305.01 -188.28c21.21,-12.88 12.47,-8.63 29.85,-25.43 9.17,-8.84 16.62,-13.95 29,-21.63 19.7,-12.23 43.88,-16.89 60.82,-29.77 -59.81,-9.05 -100.46,36.59 -119.67,76.83zm996.08 41.54c24.61,51.57 22.11,92.65 31.69,150.62 8.79,-26.07 9.93,-56.36 3.82,-86.09 -13.41,-65.2 -24.75,-58.89 -35.51,-64.53zm-916.41 -39.43c8.6,-11.55 0.11,-2.54 9.19,-12.4 29.84,-32.44 70.03,-23.96 96.45,-42.5 -27.92,-8.37 -51.67,-5.78 -79.02,9.55 -28.39,15.94 -34.3,28.93 -42.03,64.89l15.41 -19.54zm345.7 197.7c11.04,-31.84 11.16,-60.61 26.62,-96.02 14.42,-33.03 28.2,-46.28 39.81,-75.94 -41.8,22.71 -75.2,92.1 -66.43,171.96zm386.38 100.33c-9.94,-112.51 -14.3,-92.79 16.31,-190.05 -48.26,32.42 -46.54,138.29 -16.31,190.05zm-507.83 -562.91c20.19,-32.21 124.74,-110.97 190.25,-136.86 10.03,184.54 67.18,274.61 173.19,359.37 -201.2,-48.62 -274.86,-119.63 -363.44,-222.51zm-293.68 47.15c18.41,-22.12 22.09,-12.93 39.67,0.38l46.19 31.39c-8.53,-0.93 -1.65,6.42 -9.45,4.93 -22.7,-4.38 -57.83,-20.7 -76.41,-36.7zm139.28 -19.42c-12.6,-0.87 -5.44,8.88 -16.75,1.2 -12.41,-8.42 -42.97,-39.53 -48.33,-53.22 16.89,0.09 8.97,-3.27 20.75,9.64 22.19,24.32 8.51,20.9 44.33,42.38zm-104.29 -14.98l29.95 -24.3c19.39,33.7 34.71,43 46.99,64.03 -7.38,-1.68 -7.79,13.05 -15.71,10.27 -20.83,-7.3 -49.41,-35.44 -61.23,-50zm-80.21 9.49c26.28,-19.7 22.79,-25.12 43.99,-5.54l-11.89 23.13c-20.11,-5.55 -16.2,-3.74 -32.1,-17.59zm50.46 -28.9c0.81,-1.53 1.75,-5.86 2.32,-4.65l14.26 -14.32c6.75,-4.27 11.77,-5.87 18.2,-8.58 13.59,-5.66 15.11,9.59 13.24,12.96 -5.01,8.96 -26.08,24.58 -32.92,25.79 -4.61,0.83 -9.68,-8.41 -15.1,-11.2zm96.11 -41.31c12.57,3.27 53.98,29.43 65.87,50.25 -50.86,-4.76 -40.44,-28.99 -65.87,-50.25zm34.72 -31.97c19.47,-9.54 21.02,-15.38 44.25,-26.12 16.36,39.46 23.26,32.38 40.72,59.49l-71.88 -20.61c-1.43,-1 -3.18,-2.6 -4.44,-3.62l-8.65 -9.14zm61.01 -40.15c16.1,-7.65 59.55,35.96 64.45,41.98 -22.21,8.75 -67.88,-6.31 -66.2,-37.48 0.03,-0.79 2.24,-2.95 1.75,-4.5zm88.32 11.92c-30.56,-8.71 -42.84,-15.73 -61.48,-34.35l27.05 -11.94c10.22,19.61 21.78,30.62 34.43,46.29zm759.04 -64.98c13.1,13.15 25,135.13 24.51,161.65 -0.93,50.82 -14.26,63.73 -31.5,93.66l-3.61 6.7c-0.38,0.74 -1.27,2.66 -1.66,3.42 -90.71,179.48 -353.36,164.43 -453.75,10.33 -51.63,-79.22 -74.06,-228.17 -37.96,-255.17 101.06,-75.61 331.17,-111.11 503.97,-20.59zm-722.93 48.92c-36.98,-11.53 -33.97,-15.7 -58.17,-40.11l19.15 -10.17 39.02 50.28zm29.98 -23.12c-23.94,-3.89 -34.91,-17.68 -52.71,-40.51l33.52 -4.97c12.18,12.88 17.84,18.61 19.19,45.48zm56.57 -86.4l15.76 43.23c-40.55,18.56 -44.82,4.52 -66.23,-22.18l50.47 -21.05zm81.81 -32.83l14.33 35.54 -32.73 14.29c-17.68,-14.44 -16.63,-10.65 -28.1,-33.08l46.5 -16.75zm45.36 5.29c10.54,26.24 1.37,8.99 -7.1,19.18l-15.44 -35.52c3.66,1.62 16.04,1.55 19.78,2.96 3.93,1.48 -0.76,4.64 2.76,13.38zm453.18 -1.08c4.48,-25.18 10.45,-48.99 9.11,-79.96l62.88 1.52c-5.73,53.95 -10.29,59.07 -30.1,95.75l-41.89 -17.31zm-438.42 -18.49c1.33,-1.14 3.09,-2.73 4.05,-3.32l36.18 -13.44 7.21 32.78c-35.05,8.18 -27.69,3.72 -47.44,-16.02zm63.6 -22.29c21.96,-5.09 20.43,-8.18 41.48,-8.71 -11.25,54.63 -40.16,32.75 -41.48,8.71zm104.72 -19.93c9.49,14.45 12.97,-21.66 5.6,19.71 -4.99,27.98 3.22,-1.1 -10.51,14.12 -2,-2.62 -14.41,11.4 -8.61,-22.71 3,-17.65 -1.96,-3.57 13.52,-11.12zm-33.95 3.9c8.59,12.14 7.31,-23.33 6.1,19.02 -0.14,4.78 -3.9,10.83 -8.75,15.3l2.65 -34.32zm221.76 -22.84l74.85 -5.45c-5.11,27.11 -11.53,54.56 -21.24,74.56l-55.32 -9.78 1.71 -59.33zm-107.19 7.83c-5.47,41.74 -8.57,39.39 -47.58,41.67l2.21 -34.97 45.37 -6.7zm29.41 -1.7l57.73 -3.75c-0.47,26.48 3.44,39.42 -1.26,45.59 -6.93,9.1 -23.72,3.5 -28.58,4.87 -11.7,-17.64 0.54,-19.01 0.21,-46.74 -34.45,41.96 5.09,40.88 -39.05,41.95l10.95 -41.92z"/>
  <path class="fil1" d="M11315.21 8627.27l0 0zm-114.78 75.77c-42.23,42.21 -19.97,79.46 -28.04,165.09l-22.26 -74.5 10.31 -57.68c-27.72,15.24 -79.46,89.46 -90.03,116.97 39.08,23.6 116.88,13.27 195.81,24.39 16.33,2.3 1.54,-85.63 7.95,-120.1 1.65,-8.91 4.76,-14.24 10.13,-13.53 9.77,1.28 12.51,17.57 24.49,36.66 9.79,15.61 28.51,33.12 39.64,45.84 18.3,20.9 38.41,18.18 59.96,29.3 2.96,1.52 207.63,59.3 246.6,74.56 32.31,12.64 -37.85,-2.63 -116.46,-19.69 -102.19,-22.18 -69.16,-17.76 -80.82,-16.97 -22.54,1.5 10.26,24.81 136.48,64.09 96.92,30.18 157.38,48.61 288.29,47.28 40.25,-0.41 87.19,-10.21 143.89,-12.55 95.15,-11.46 366.99,-98.78 424.24,-176.44 -30.88,-15.44 -34.72,-52.48 -74.81,-66.54 -131.96,111.73 -189.54,162.76 -361.05,202.44 -137.38,31.79 -279.04,55.38 -382.29,-39.81 -14.09,-13.01 -24.81,-18.75 -35.96,-31.86 -82.33,-96.77 -104.27,-156.68 -101.21,-305.1 -43.87,-14.07 -163.18,126.09 -206.32,148.75 24.51,-21.94 86.13,-122.39 110.74,-150.6l-16.65 -19.68c-16.15,-19.34 -8.06,-3.12 -18.54,-29.46l80.08 30.99c-11.94,-36.89 -22.66,-22.36 -23.03,-74.37 14.01,18.38 2.09,-8.5 12.47,9.53 14.32,24.91 18.88,20.05 35.6,41.2l55.61 -24.32c-5.79,-16.03 -0.8,-4.63 -8.33,-17.09 -16.19,-26.79 -20.25,-20.6 -28.76,-60.51 21.7,13.9 3.75,-0.07 20.61,17.22 6.2,6.36 10.22,13.21 16.78,20.97 16.28,19.32 16.77,22.05 37.24,20.74l-0.93 -20.4c-6.04,-35.81 -15.09,-41.19 -3.49,-88.26 -35.83,8.64 -96.54,46.88 -115.52,60.54 -26.54,19.11 -61.32,40.58 -87.7,62.28 -55.49,45.66 -92.84,101.04 -133.3,129.78 36.2,-71.28 73.97,-141.7 168.49,-209.79 142.18,-102.43 305.56,-119.48 410.98,-113.48l15.27 -82.09 0.16 82.96 62.53 4.6 20.93 -54.22 -2.24 57.11 80 11.92 26.87 -49.42c-4.19,25.56 -11.14,34.13 -7.02,53.39l131.73 36.36c14.33,-15.08 9.67,-7.64 15.44,-33.98 2.97,7.2 4.09,4.7 4.5,19.49 0.23,8.13 -3.74,15.03 2.29,20.97 7.79,7.67 157.24,65.75 185.83,78.82 17.44,-25.42 37.31,-57.96 50.06,-90.62 -4.7,49.4 -18.75,63.55 -33.26,104.61 13.79,11.84 35.69,24.34 54.01,34.92 6.23,3.61 12.57,6.86 18.74,10.64 1.88,1.17 7.2,4.68 9.07,5.87 12.42,7.97 15.31,10.56 28.18,16.97l23.38 -21.63c1.22,-1.09 3.47,-2.97 4.48,-3.85 1.03,-0.91 2.99,-2.68 4.55,-3.93 -6.81,25.67 -5.97,18.99 -15.67,38.21 34.8,16.52 29.59,33.89 66.81,48.09 51.35,-107.68 30.31,-27.86 18.14,17.06 29.69,-13.59 29.04,-23.39 43.95,-52.46 8.32,57.72 -1.7,38.99 -9.61,76.82 25.03,3.42 16.15,9.94 25.08,-16.74 -1.6,17.45 -0.99,30.32 5.26,38.36 7.14,9.18 20.03,17.4 43,29.92 31.47,-24.87 42.99,-61.66 68.92,-92.18 -6.36,33.15 -33.75,83.57 -55.26,99.29l31.56 32.96c14.62,-11.09 24.67,-21.81 39.12,-32.03l-25.16 40.95 19.65 27.35c-13.36,-2.75 -22.59,-7.35 -29.77,-9.72 -4.91,-1.62 -20.56,8.23 -40.15,20.89 -82.85,53.57 -131.03,49.95 -211.64,89.34 -52.87,25.83 -98.56,50.87 -152.83,73.19 -113.72,46.8 -202.88,82.37 -340.69,94.74 -66.78,5.99 -136.26,4.09 -203.3,-2.3 -68.32,-6.51 -139.06,-24.59 -200.12,-30.47 -15.48,45.25 -24.17,108.26 -35.61,139.18 -12.58,-96.67 39.16,-141.05 13.18,-153.75 -47.83,-23.39 -387.55,-109.54 -456.1,-106.54l-48.06 -4.31c-0.86,-2.38 -3.51,-1.73 -5.19,-2.75 -11.02,-66.36 338.21,-347.76 158.1,-167.88zm764.42 461.11l1.81 22.68 -9.23 -22.5 -5.25 -67.61 -17.21 20.98c-37.86,56.38 -31.35,98.24 -16.38,159.76 -34.04,-87.97 -38.44,-121.29 22.18,-186.45l11.41 5.71c9.98,13.29 2.01,-7.01 9.55,14.59 1.95,5.62 2.4,12.95 2.91,18.98 0.82,9.78 0.2,23.74 0.21,33.86zm351.33 -190.45c8.71,0.22 106.29,23.21 113.58,27.45 27.22,15.82 49.51,53.57 48.98,93.47 -13.57,-40.2 -38.35,-77.06 -81.76,-87 1.08,1.21 8.39,9.28 8.44,9.34 29.69,39.71 5.02,20.06 -26.08,-1.3 -25.55,-17.55 -55.47,-33.6 -63.16,-41.96zm241.45 121.65c-23.43,-44.99 -22.67,-53.89 -56.87,-90.53 -44.6,-47.81 -78.27,-42.55 -114.6,-74.09l122.14 30.23c25.59,13.86 12.92,5.75 23.01,25.09l-41.28 -16.54c5.03,6.83 23.01,22.63 32.61,37.66 12.55,19.65 31.17,65.1 34.99,88.18zm-466.27 116.74c-13.35,-36.84 -34.74,-74.71 -13.41,-126.09l13.41 126.09zm-335.54 -119.32c-20.26,43.04 -17.24,70.45 -22.8,117.68 -15.34,-37.7 -17.35,-97.71 22.8,-117.68zm542.32 56.59c-5.28,-45.88 -37.05,-80.22 -45.65,-118.24 32.42,16.83 54.39,65.65 45.65,118.24zm-267.49 47.25c-18.64,-39.36 -23.42,-99.8 18.73,-128.58 -16.08,68.59 -19.32,50.1 -18.73,128.58zm124.09 -3.1c-3.55,-80.92 -15.39,-89.24 -38.99,-148.53 44.42,28.81 54.39,81.04 38.99,148.53zm198.21 -25.69c0.84,-58.9 -24.44,-106.55 -41.37,-149.89 40.66,22.37 56.66,87.53 41.37,149.89zm314.03 -188.28c-21.83,-12.88 -12.83,-8.63 -30.73,-25.43 -9.44,-8.84 -17.11,-13.95 -29.86,-21.63 -20.28,-12.23 -45.17,-16.89 -62.61,-29.77 61.57,-9.05 103.43,36.59 123.2,76.83zm-1025.55 41.54c-25.35,51.57 -22.77,92.65 -32.64,150.62 -9.04,-26.07 -10.22,-56.36 -3.93,-86.09 13.81,-65.2 25.48,-58.89 36.57,-64.53zm943.53 -39.43c-8.86,-11.55 -0.12,-2.54 -9.46,-12.4 -30.73,-32.44 -72.1,-23.96 -99.3,-42.5 28.74,-8.37 53.19,-5.78 81.35,9.55 29.23,15.94 35.32,28.93 43.28,64.89l-15.87 -19.54zm-355.93 197.7c-11.37,-31.84 -11.49,-60.61 -27.41,-96.02 -14.85,-33.03 -29.03,-46.28 -40.99,-75.94 43.04,22.71 77.43,92.1 68.4,171.96zm-397.83 100.33c10.24,-112.51 14.73,-92.79 -16.79,-190.05 49.7,32.42 47.93,138.29 16.79,190.05zm522.88 -562.91c-20.79,-32.21 -128.44,-110.97 -195.89,-136.86 -10.33,184.54 -69.17,274.61 -178.32,359.37 207.16,-48.62 283,-119.63 374.21,-222.51zm302.37 47.15c-18.96,-22.12 -22.75,-12.93 -40.85,0.38l-47.56 31.39c8.78,-0.93 1.7,6.42 9.73,4.93 23.38,-4.38 59.54,-20.7 78.68,-36.7zm-143.41 -19.42c12.97,-0.87 5.61,8.88 17.24,1.2 12.79,-8.42 44.25,-39.53 49.77,-53.22 -17.39,0.09 -9.24,-3.27 -21.36,9.64 -22.86,24.32 -8.77,20.9 -45.65,42.38zm107.38 -14.98l-30.83 -24.3c-19.97,33.7 -35.75,43 -48.39,64.03 7.6,-1.68 8.03,13.05 16.18,10.27 21.45,-7.3 50.87,-35.44 63.04,-50zm82.59 9.49c-27.07,-19.7 -23.47,-25.12 -45.3,-5.54l12.24 23.13c20.7,-5.55 16.68,-3.74 33.06,-17.59zm-51.96 -28.9c-0.83,-1.53 -1.8,-5.86 -2.39,-4.65l-14.68 -14.32c-6.95,-4.27 -12.12,-5.87 -18.74,-8.58 -13.99,-5.66 -15.56,9.59 -13.63,12.96 5.16,8.95 26.85,24.58 33.89,25.79 4.75,0.83 9.97,-8.41 15.55,-11.2zm-98.96 -41.31c-12.94,3.27 -55.57,29.43 -67.82,50.25 52.37,-4.76 41.64,-28.99 67.82,-50.25zm-35.74 -31.97c-20.05,-9.54 -21.65,-15.38 -45.56,-26.12 -16.85,39.46 -23.95,32.38 -41.93,59.49l74.01 -20.61c1.48,-1 3.27,-2.6 4.57,-3.62l8.91 -9.14zm-62.82 -40.15c-16.58,-7.65 -61.31,35.96 -66.36,41.98 22.87,8.75 69.89,-6.31 68.17,-37.48 -0.04,-0.79 -2.32,-2.95 -1.81,-4.5zm-90.94 11.92c31.47,-8.71 44.12,-15.73 63.3,-34.35l-27.84 -11.94c-10.53,19.61 -22.42,30.62 -35.46,46.29zm-781.51 -64.98c-13.48,13.15 -25.73,135.13 -25.23,161.65 0.96,50.82 14.68,63.73 32.44,93.66l3.71 6.7c0.4,0.74 1.31,2.66 1.71,3.42 93.4,179.48 363.82,164.43 467.18,10.33 53.16,-79.22 76.26,-228.17 39.09,-255.17 -104.06,-75.61 -340.98,-111.11 -518.9,-20.59zm744.34 48.92c38.07,-11.53 34.97,-15.7 59.89,-40.11l-19.72 -10.17 -40.17 50.28zm-30.87 -23.12c24.65,-3.89 35.95,-17.68 54.27,-40.51l-34.52 -4.97c-12.53,12.88 -18.36,18.61 -19.75,45.48zm-58.25 -86.4l-16.22 43.23c41.75,18.56 46.15,4.52 68.19,-22.18l-51.97 -21.05zm-84.23 -32.83l-14.75 35.54 33.7 14.29c18.2,-14.44 17.12,-10.65 28.93,-33.08l-47.88 -16.75zm-46.69 5.29c-10.87,26.24 -1.42,8.99 7.3,19.18l15.9 -35.52c-3.77,1.62 -16.52,1.55 -20.37,2.96 -4.05,1.48 0.78,4.64 -2.83,13.38zm-466.6 -1.08c-4.61,-25.18 -10.76,-48.99 -9.38,-79.96l-64.74 1.52c5.9,53.95 10.59,59.07 30.99,95.75l43.13 -17.31zm451.4 -18.49c-1.37,-1.14 -3.19,-2.73 -4.17,-3.32l-37.25 -13.44 -7.43 32.78c36.09,8.18 28.51,3.72 48.85,-16.02zm-65.49 -22.29c-22.61,-5.09 -21.03,-8.18 -42.71,-8.71 11.58,54.63 41.35,32.75 42.71,8.71zm-107.82 -19.93c-9.76,14.45 -13.35,-21.66 -5.76,19.71 5.13,27.98 -3.32,-1.1 10.81,14.12 2.06,-2.62 14.85,11.4 8.87,-22.71 -3.09,-17.65 2.02,-3.57 -13.92,-11.12zm34.96 3.9c-8.85,12.14 -7.53,-23.33 -6.28,19.02 0.14,4.78 4.01,10.83 9.01,15.3l-2.73 -34.32zm-228.33 -22.84l-77.07 -5.45c5.27,27.11 11.88,54.56 21.88,74.56l56.96 -9.78 -1.77 -59.33zm110.37 7.83c5.63,41.74 8.82,39.39 48.98,41.67l-2.27 -34.97 -46.71 -6.7zm-30.29 -1.7l-59.43 -3.75c0.48,26.48 -3.54,39.42 1.3,45.59 7.13,9.1 24.42,3.5 29.42,4.87 12.05,-17.64 -0.55,-19.01 -0.22,-46.74 35.48,41.96 -5.23,40.88 40.21,41.95l-11.28 -41.92z"/>
  <path class="fil1" d="M8538.1 8601.91c45.35,-31.66 89.09,0.2 68.39,50.96 -18.64,45.7 -84.43,29.24 -68.39,-50.96zm-209.15 30.24c84.32,7.74 71.75,124.58 29.21,166.32 80.91,122.1 318.24,42.7 288.33,-132.68 -10.79,-63.32 -70.68,-118.97 -136.29,-128.4 -95.85,-13.76 -155.69,35.11 -181.25,94.76z"/>
  <path class="fil2" d="M8358.16 8798.47c42.54,-41.74 55.11,-158.58 -29.21,-166.32 -37.24,12.39 -55.71,41.73 -52.35,95.44 3.51,56.11 23.34,79.95 81.56,70.88z"/>
  <path class="fil2" d="M8538.1 8601.91c-16.04,80.2 49.75,96.66 68.39,50.96 20.7,-50.76 -23.04,-82.62 -68.39,-50.96z"/>
  <path class="fil4" d="M10758.43 5486.74c148.41,20.73 648.6,363.9 641.42,300.99 -5.23,-45.89 -230.25,-536.19 -245.67,-606.55 0,0 508.74,299.48 508.74,299.48 -0.52,-103.43 -221.12,-690.61 -126.16,-597.36 148.77,146.1 299.72,289.57 440.99,442.19 1115.69,1205.19 1886.96,2709.88 2602.73,3898.19l-2136.17 -907.97c-677.15,-249.5 -1168.64,-595.19 -1962.43,-1386.11l357.9 -0.54 -403.36 -563.45 594.67 191.64 -498.84 -612.44 606.16 96.93 -379.98 -555z"/>
  <path class="fil11" d="M6384.58 4238.99c50.37,-56.7 73.86,-92.63 140.56,-114.62 -134.37,268.13 -321.57,500.13 -429.83,816.86 15.57,-64.61 541.1,-897.24 653.61,-965.71l-37.78 150.51 324.51 -457.65c-37.9,120.94 -156.83,310.28 -164.49,377.41 -6.11,53.54 -5.68,26.92 7.04,66.2 35.99,-66.38 79.43,-129.65 128.38,-164.28l-44.64 122.41c-68.29,182.81 -240.17,425.46 -260.84,614.53 90.5,-176.13 217.55,-458.85 339.77,-580.85 -99.4,216.07 -185.98,332.75 -254.3,572.49 115.18,-192.65 182.31,-296.77 326.21,-460.07 -40.72,43.32 -333.58,603.11 -300.26,702.06l34.05 -95.88 296.13 -525.74c16.57,-27.33 35.65,-61.76 53.13,-87.46 9.42,-13.86 17.8,-25.83 28.99,-38.49l23.07 -22.44c2.79,-2.77 7.77,-7.54 12.17,-10.64 -48.12,135.71 -140.2,291.01 -129.16,421.93 118.56,-225.81 171.85,-377.63 340.01,-556.31 -62.74,159.72 -161.87,334.74 -232.41,505.39l-15.12 12.73 35.77 15.67 225.15 -378.11 -146.21 347.24c84.79,-71.33 108.26,-174.4 211.83,-241.49 -33.18,71.31 -76.16,136.25 -67.55,200.01 112.62,-246.94 554.66,-798.66 645.92,-1006.37 -45.13,2.04 -128.36,35.92 -143.81,79.53 13.48,-65.98 113.65,-193.29 107.9,-225.24l-54.09 51.41 -121.84 104.82c-1.89,-28.31 -12.69,21.46 1.35,-45.03 1.12,-5.27 7.1,-22.04 8.88,-26.44 13.63,-33.7 16.67,-23.98 18.34,-33.53l-100.74 97.89 98.85 -193.51c-9.5,-26.62 51.89,-38.67 -32.34,-14.2 -46.13,7.71 -73.58,37.11 -128.22,52.36l154.12 -141.37c-42.85,26.02 -93.91,52.87 -149.42,77.28 -187.06,82.26 41.42,-57.72 -123.07,20.87 -42.59,29.74 -94.27,64.6 -148.76,83.83l206.2 -213.03c-70.21,-3.43 -137.11,5.15 -183.56,50.5 39.97,-43.71 60.49,-70.7 112.39,-85.05 -36.88,-16.31 -20.99,-14.34 -55.63,-17.19l-72.1 9.29 64.4 -116.31c-320.71,25.12 -912.62,497.59 -1016.97,774.45 51.87,-68.48 220.15,-168.42 281.81,-214.24 -64.95,89.49 -470.06,591.21 -467.4,703.58z"/>
  <path class="fil11" d="M12220.11 7014.65c-34.16,7.87 -175.25,-100.24 -246.81,-112.72 47.56,15.67 87.39,108.53 91.39,159.6 -227.25,-94.62 -838.96,-572.15 -1109.34,-689.31 68.3,-12.45 139.94,33.5 218.04,68.08 -76.39,-114.51 -188.29,-136.75 -268.5,-229.82l379.69 150.98 -416.08 -239.11 15.42 -41.2c-160.47,-43.32 -293.67,-105.4 -441.8,-154.25 -153.89,-50.75 -297.52,-63.47 -431.99,-105.6l110.07 60.19c234.44,85.14 653.16,285.85 798.85,452.77 -153.21,55.82 -625.36,-319.14 -1057.85,-375.68 296.87,153.76 683.7,317.56 917.31,519.15 -245.36,-99.14 -364.41,-177.77 -638.66,-246.46 175.89,142.41 381.64,207.77 506.23,401.92 -81.15,-38.6 -158.06,-86.98 -246.65,-122.04 -164.85,-65.28 -215.11,-70.58 -265.85,-59.42l795.96 490.06c-90.07,-81.67 -197.11,-173.92 -291.47,-256.81l569.76 386.28 157.85 139.06 651.07 400.87c-1.59,-31.23 -14.93,-74.57 -34.3,-118.98 -188.9,-144.35 -353.03,-272.59 -447.8,-341.57 33.42,37.59 89.14,113.94 100.3,166.9l-501.96 -424.39c-25.87,-23.38 -58.8,-50.83 -82.76,-74.92 -12.92,-13 -24.03,-24.5 -35.35,-39.26l-19.42 -29.77c-2.4,-3.62 -6.54,-10.01 -8.98,-15.49 134.98,77.9 282.39,208.42 423.6,219.36 -217.26,-172.65 -368.36,-259.19 -526.04,-478.9 157.72,98.52 324.7,240.42 492.53,349.59 43.17,85.94 258.91,280.86 524.86,499.64 167.04,51.62 236.99,146.19 381.14,210.68 -98.22,-157.03 -223.99,-248 -321.41,-377.35 145.19,76.73 221.06,157.87 334.98,245.55 -103.01,-141.72 -164.05,-208.74 -333.49,-327.71 168.31,24.16 290.22,111.69 432.79,189.24 -36.25,-86.51 -99.52,-181.28 -175.33,-249.16zm-716.36 -241.73l-569.77 -386.28c94.44,82.93 201.56,175.25 291.64,256.95 87.96,79.76 178.81,131.96 268.41,203.06 140.19,111.2 283.35,234.32 454.1,317.76l-444.38 -391.49z"/>
  <path class="fil11" d="M11930.36 5618.52c-51.82,-67.94 -166.18,-254.39 -241.99,-310.27 302.23,106.52 834.67,757.23 874.62,1119.58l-127.8 -68.04 12.91 81.3c-1.69,39.38 -0.19,21.29 -16.27,63.77 -17.53,-58.19 -47.41,-80.32 -96.07,-123.75 50.68,50.73 62.62,126.16 61.75,205.86l-237.63 -224.64c22.9,60.94 62.5,118.02 96.24,165.03 137.27,81.27 209.01,212.04 309.89,305.38 -6.54,-133.58 -82.97,-223.9 -96.1,-338.85 92.33,77.16 147.44,173.31 191.41,252.95l-23.27 -200.27c84.6,127.52 140.94,259.57 205.92,391.79 49.62,100.92 131.85,315.6 164.06,436.12l227.65 903.06c66.99,-518.88 -267.52,-1415.08 -493.51,-1869.83 -123.04,-247.59 -335.69,-560.66 -535.68,-810.22 -142.13,-177.36 -505.17,-619.5 -687.55,-735.44 110.79,158.41 231.24,272.38 311.89,442.32 -292.17,-213.31 -290.42,-266.73 -717.61,-540.12 -123.56,-79.07 -786.27,-443.56 -808.76,-470.01 220.95,112.41 694.68,439.22 925.64,614.71 89.12,67.69 207.96,186.98 281.93,235.83 -230.89,-106.27 -780.46,-410.35 -1021.58,-465.41 390.26,185.07 1077.66,683.59 1439.91,939.15z"/>
  <path class="fil11" d="M10544.7 5666.92c21.7,49.58 91.8,112.98 132.19,142.99 -323.37,-146.04 -1379.41,-693.93 -1714.24,-725.27 327.61,135.23 1779.89,816.81 1935.58,1013.11 186.54,72.7 378.93,177.61 553.4,241.94 -199.12,-182.99 -364.69,-236.94 -612.55,-361.73 140.48,-18.04 311.38,79.72 459.4,128.49 -3.5,-4.86 -8.85,-10.28 -11.94,-13.33l-25.09 -25.2c-14.07,-12.14 -27.3,-21.13 -42.6,-31.23 -28.36,-18.7 -66.2,-38.87 -96.29,-56.49l-577.86 -313.28z"/>
  <path class="fil11" d="M11207.95 5942.9c-181.58,-156.15 -296.36,-227.82 -508.38,-350.16 260.82,67.25 389.91,160.42 626.5,263.9 -136.24,-133.32 -445.7,-265.32 -638.94,-360.4 204.36,15.4 472.47,199.9 672.03,269.53l-178.37 -114.1c-66.12,-32.85 -130.82,-64.8 -200.58,-98.76 -534.85,-260.45 -801.88,-339.36 -1317.2,-552.06 203.71,76.72 898.54,414.87 1016.44,543.36 -213.57,-94.31 -402.22,-160.83 -627.5,-262.67 -130.6,-59.05 -525.77,-206.24 -611.66,-261.42 309.35,169.42 1664.7,828.27 1767.66,922.78z"/>
  <path class="fil11" d="M11288.85 5524.11l-628.32 -281.2c107.43,65.23 228.98,137.5 331.92,202.26 100.49,63.23 199.05,98.83 299.65,153.23 157.41,85.11 319.82,181.42 502.49,233.87l-505.74 -308.16z"/>
  <path class="fil11" d="M12275.87 6806.41c29.73,94.4 14.3,25.34 -13.98,37.24l-212.28 -103.81 109.42 110c-10.35,-1.48 0,-5.34 -36.83,-19.37 -4.81,-1.83 -23.11,-7.89 -28.82,-8.92 -72.13,-13.11 -18.14,-2.98 -48.53,0.37l117.75 133.62c49.21,-33.13 -32.32,-67.9 72.04,-8.4 -2.5,-6.62 -7.72,-28.76 -7.05,-30.66 0.27,-0.75 3.4,-6.9 3.71,-7.6 0.33,-0.72 5.61,-1.47 7.6,-3.5l162.96 154.09c-10.41,-93.78 -61.04,-179.52 -125.99,-253.06z"/>
  <path class="fil11" d="M5056.79 9213.07c-3.87,-36.06 124.61,-167.68 146.27,-239.66 -21.96,46.93 -122.28,76.4 -175.25,74.2 125.25,-221.79 691.34,-791.34 845.08,-1054.68 4.36,71.71 -51.68,139.63 -96.84,215.61 127.06,-64.35 163.72,-176.58 269.23,-247.51l-201.96 371.47 296.99 -397.98 40.43 20.94c64.31,-159.53 144.53,-288.72 213,-434.87 71.14,-151.86 101.93,-297.84 161.81,-430.8l-75.44 105.66c-116.39,230.35 -374.27,635.79 -563.74,764.88 -38.44,-164.31 405.05,-603.12 516.5,-1040.49 -194.6,286.03 -410.62,663.24 -646.57,878.38 132.15,-239.83 227.62,-352.45 332.02,-625.75 -153.07,148.65 -243.51,330.64 -420.88,440.52 -28.7,126.97 -64.39,160.59 -160.31,392.87l-44.7 108.05c80.37,-74.72 166.5,-141.9 284.51,-206.82 -104.86,130.23 -244.22,263.59 -366.12,400.61 -62.13,142.64 -54.77,102.72 -65.11,66.86 -77.27,34.34 -226.45,157.36 -405.08,321.31 -60.9,70.72 -112.07,142.77 -137.54,210.02 -27.26,71.99 -74.59,136.82 -148.32,129.62 -6.26,34.3 -10.84,70.22 -12.84,106.24 107.41,-70.46 194.44,-150.48 300.85,-212.25 -96.76,139.7 -189.47,207.64 -293.61,313.88 158.31,-88.38 234.69,-142.8 377.83,-302.21 -45.57,169.93 -150.57,284.38 -247.84,421.3 93.36,-26.58 198.55,-79.89 277.63,-149.4zm654.35 -1670.79c30.49,-43.83 61.01,-88.56 87.6,-137.66 87.41,-161.31 99.06,-212.28 93.86,-265.79l-152.77 192.27c-0.87,8.7 -1.81,17.51 -2.93,26.59 -9.56,77.88 -17.73,137.06 -25.76,184.59zm-317.61 964.64l467.18 -537.72c-96.86,86.79 -204.92,185.46 -299.98,267.92 -92.79,80.53 -157.64,167.42 -241.73,250.71 -131.55,130.3 -275.72,262.19 -382.52,427.33l457.05 -408.24z"/>
  <path class="fil11" d="M6526.94 9087.65c76.19,-44.86 281.86,-139.36 348.63,-210.34 -146.73,297.37 -880.97,764.11 -1258.19,760.45l85.68 -122.91 -85.11 3.23c-40.26,-6.6 -21.85,-2.81 -63.51,-24.58 61.94,-10.84 88.36,-38.8 138.99,-83.43 -58.37,45.8 -137.34,48.76 -219.12,38.05l260.11 -216.44c-65.42,16.02 -128.96,49.66 -181.42,78.52 -100.44,131 -243.64,188.59 -351.99,280.7 138.05,9.77 240.28,-57.61 360,-56.92 -90.67,85.34 -196.27,130.1 -283.51,165.45 140.91,0.54 454.93,-29.81 94.76,148.01 25.37,9.34 -309.46,212.8 -417.15,344.97 128.73,-36.3 562.09,-332.96 660.84,-368.08 269.55,-95.85 512.88,-206.68 793.96,-381.37 199.75,-124.13 803.36,-511.59 944.99,-684.65 -176.42,94.28 -308.37,203.95 -492.93,265.85 188.08,-201.83 852.55,-824.4 480.37,-568.41 -80.51,83.21 -217.75,190.6 -277.06,260.58 137.66,-224.12 517.89,-751.23 604.21,-992.16 -238.3,378.12 -835.3,1022.85 -1142.55,1363.48z"/>
  <path class="fil11" d="M6648.18 7658.05c-53.61,16.18 -127.41,80.39 -163.21,118.18 189.93,-314.23 883.14,-1331.6 956.66,-1671.73 -179.35,319.9 -1058.82,1727.88 -1279.69,1863.6 -97.72,182.7 -229.25,367.4 -316.85,538.72 212.55,-182 288.43,-345.44 447.22,-584.7 1.2,146.56 -120.33,310.08 -188.7,456.13 5.41,-2.99 11.65,-7.81 15.17,-10.61l28.97 -22.68c14.21,-12.97 25.08,-25.44 37.35,-39.91 22.71,-26.83 48.1,-63.21 69.91,-91.95l393.17 -555.05z"/>
  <path class="fil11" d="M6282.8 8305.41c182.85,-167.26 270.63,-276.36 422.5,-479.09 -101.29,259.67 -212.92,380.81 -348.45,611.11 153.78,-123.52 327.59,-425.19 449.11,-611.98 -41.03,208.06 -263.66,460.75 -359.84,657.18l139.25 -169.18c41.9,-63.88 82.72,-126.4 126.2,-193.88 333.59,-517.38 447.61,-782 729.73,-1285.18 -103.97,199.83 -537.11,871.97 -683.67,977.24 123.25,-207.78 214.87,-393.38 347.28,-612.29 76.8,-126.88 276.78,-514.72 344.07,-596.15 -212.23,296.92 -1056.37,1608.11 -1166.18,1702.22z"/>
  <path class="fil11" d="M6703.09 8440.21l366.44 -610.84c-80.28,102.34 -169.53,218.29 -248.77,316.05 -77.37,95.45 -126.08,192.32 -194.4,288.95 -106.86,151.24 -225.85,306.21 -302.27,487.42l379 -481.58z"/>
  <path class="fil11" d="M5263.86 9296.05c-100.66,18.91 -27.79,11.58 -36.53,-18.95l132.86 -205.29 -126.54 98.85c2.82,-10.44 5.5,0.65 24.45,-35.45 2.47,-4.73 10.97,-22.77 12.73,-28.51 22.36,-72.49 5.3,-18.28 5.61,-49.91l-151.81 104.5c27.96,54.64 73.75,-24.84 -0.26,75.05 7.1,-1.75 30.51,-4.39 32.36,-3.46 0.75,0.36 6.67,4.34 7.36,4.74 0.68,0.43 0.83,5.96 2.65,8.24l-178.41 148.42c97.62,0.87 191.97,-40.56 275.53,-98.23z"/>
 </g>
</svg>
